<?xml version="1.0" encoding="iso-8859-1"?><svg xmlns="http://www.w3.org/2000/svg" xmlns:xlink="http://www.w3.org/1999/xlink"><symbol viewBox="0 0 511.999 511.999" id="left-arrow" xmlns="http://www.w3.org/2000/svg"><path d="M361.889 474.762L197.817 256.006 361.889 37.237c7.713-10.283 5.627-24.871-4.655-32.582-10.282-7.713-24.871-5.626-32.582 4.655L150.109 242.042a23.273 23.273 0 000 27.927l174.544 232.72c4.572 6.097 11.56 9.311 18.637 9.311 4.858 0 9.759-1.517 13.945-4.656 10.283-7.713 12.367-22.3 4.654-32.582z" fill="#0089ff"/></symbol><symbol viewBox="0 0 512.001 512.001" id="right-arrow" xmlns="http://www.w3.org/2000/svg"><path d="M388.819 239.537L156.092 6.816c-9.087-9.089-23.824-9.089-32.912.002-9.087 9.089-9.087 23.824.002 32.912l216.27 216.266-216.273 216.276c-9.087 9.089-9.087 23.824.002 32.912A23.195 23.195 0 00139.636 512a23.194 23.194 0 0016.457-6.817L388.819 272.45a23.27 23.27 0 000-32.913z" fill="#0089ff"/></symbol></svg>